PathFileType	4	(X/Y/Z)	55_1_40_p0_0-218_filt_butterworth.trc
DataRate	CameraRate	NumFrames	NumMarkers	Units	OrigDataRate	OrigDataStartFrame	OrigNumFrames
41.0	41.0	6	27	m	41.0	136	218
Frame#	Time	RHip			RKnee			RAnkle			RBigToe			RSmallToe			RHeel			LHip			LKnee			LAnkle			LBigToe			LSmallToe			LHeel			Neck			Head			Nose			RShoulder			RElbow			RWrist			RThumb			RIndex			RPinky			LShoulder			LElbow			LWrist			LThumb			LIndex			LPinky			
		X1	Y1	Z1	X2	Y2	Z2	X3	Y3	Z3	X4	Y4	Z4	X5	Y5	Z5	X6	Y6	Z6	X7	Y7	Z7	X8	Y8	Z8	X9	Y9	Z9	X10	Y10	Z10	X11	Y11	Z11	X12	Y12	Z12	X13	Y13	Z13	X14	Y14	Z14	X15	Y15	Z15	X16	Y16	Z16	X17	Y17	Z17	X18	Y18	Z18	X19	Y19	Z19	X20	Y20	Z20	X21	Y21	Z21	X22	Y22	Z22	X23	Y23	Z23	X24	Y24	Z24	X25	Y25	Z25	X26	Y26	Z26	X27	Y27	Z27	
136	3.317073170731707	0.32778393285786744	0.9284138315208446	0.6034954898187292	0.32943808512570577	0.5136403683781302	0.5946275164930729	0.32131377750732276	0.06648700125774533	0.6342280589658033	0.28977776248529574	0.06403070328123499	0.4315808229371141	0.35522868837199	0.03553819829772191	0.4690388113414245	0.30299522036851134	0.008847053406102283	0.6815545020693047	0.12142267080427482	0.9206183278799669	0.612933451630882	0.13034401068415316	0.5028740961594957	0.6168470006926943	0.13215523054883077	0.10874747141362795	0.6190965557738379	0.11485403104940614	0.08175357069442167	0.40875151083440503	0.06916978089446195	0.049238232272842845	0.4689463864833573	0.14891468167548774	0.022057594954782923	0.6813635056603901	0.2181050329977019	1.501149296095069	0.6687553004702095	0.23929891551292826	1.7427807666692139	0.6297736208166901	0.23388144058134216	1.6293118987518496	0.56832730255222	0.37258672004490223	1.4113408385749855	0.6616712232836799	0.4603729386523167	1.2323497660475102	0.5008319098131423	0.314505940679488	1.3650799389084614	0.3867955679093493	0.2310520090289866	1.4794618513192523	0.36245395301739775	0.24266362439835532	1.5072223490172076	0.325105715046996	0.2564734041796202	1.4545418905662812	0.27680818015822134	0.0764985231079584	1.4289615860593181	0.6648330890779498	0.01963572447786485	1.2026645917917893	0.48535348600643	0.10235265843041313	1.355509850955322	0.4076948994392933	0.13658288517018194	1.4577067848683343	0.42146976994022634	0.12883975840462433	1.4851078597839686	0.37838336438806874	0.1295331861902676	1.4523815836690916	0.31277008634961706	
137	3.341463414634146	0.32788162730760306	0.9242356328100729	0.6029629918254621	0.32892007091925124	0.5134280714030327	0.5944949103507373	0.3213131788609582	0.06653760489243463	0.6343888329809685	0.29010874639158574	0.06401497804046152	0.43151972334231964	0.3548909008964587	0.039532902320799417	0.4648216956222233	0.3026472529337985	0.008791913648558029	0.682273834608085	0.12126518075048003	0.9162780061975385	0.6129807690393748	0.12993377496029065	0.5019032208259326	0.617273048774978	0.13221466346946933	0.10818203066334119	0.6191721374495514	0.11493673443682967	0.0817940298147245	0.4087242744181196	0.06932007463327472	0.04977708803942222	0.4688533713339133	0.14853147460700353	0.0228140077328392	0.68083340070148	0.21831868674184632	1.4999649779736508	0.6654720567820014	0.2380604494674438	1.7426436403255765	0.6240714100606244	0.23328005958477877	1.6288413340350318	0.5676238760061507	0.3750688775085581	1.4051115952085733	0.661232737891528	0.4642583808267261	1.2139695071036514	0.5191109342995599	0.3218400874852284	1.3366839730813787	0.3851032250686356	0.23703709873845347	1.4518929272342556	0.34376871840977286	0.24869530583105368	1.4742155438765865	0.3044416142085504	0.2603179103521624	1.418549232944192	0.2725136776280199	0.07649668894788335	1.4241430739556693	0.6622813867266156	0.024565566619010572	1.1893834346480447	0.5057421542494356	0.10167965540469284	1.3302698239514814	0.4093793779913771	0.132083980688937	1.4381543200824407	0.4055716137468697	0.12681930062029334	1.4571358775444225	0.3714725750998503	0.13445585477611482	1.417897569384047	0.31491126825623994	
138	3.365853658536585	0.3278620691746432	0.9205188314531654	0.602566438576331	0.3285911658505986	0.5130395405275404	0.5943677660868878	0.3212883443503197	0.06663770779564479	0.6345315205003597	0.29093328344282243	0.06352081977220603	0.4315423090824482	0.3545023901532217	0.043492438999692025	0.46089373411548407	0.3021631646789695	0.008675886832929993	0.6829218590969657	0.12120782478054118	0.9120487418225948	0.6137002827312726	0.12949543832289015	0.5008373004997941	0.6178808970531567	0.1322960634732319	0.10742204886079713	0.6192781216289893	0.1150301746209787	0.08182964628016083	0.40869605591739394	0.06948953926691256	0.05025108221582046	0.4687231785198774	0.14812272401457016	0.02341567349382374	0.6804201744091073	0.21887491621495694	1.4980279546204178	0.6621310129844954	0.23675945076301907	1.742182873209163	0.6186278341538748	0.23283158843970694	1.6281823721863042	0.565877858913323	0.37690734901284695	1.4001714703022787	0.6566476211771681	0.464747158647121	1.199148417398914	0.5443053068210726	0.3379254505386784	1.2986091931530153	0.389228857002634	0.25506930995747445	1.4061440734601403	0.3217949440361806	0.2653753129321544	1.4222780713399557	0.28489400081955185	0.27650688781343347	1.3676925415276844	0.26824982828943034	0.07582153133804209	1.4188943203096913	0.6583431387279258	0.02736139967446566	1.176918768253445	0.5342263498401344	0.10026902671740409	1.2954950894429997	0.41297427644332396	0.13120531765245044	1.4019765140502811	0.3861996117200483	0.12808314799538456	1.4120741028283454	0.3632580295038868	0.13699819177886413	1.366163292099719	0.32238432144696205	
139	3.3902439024390243	0.32773420109044393	0.9172538646677044	0.6023190110147081	0.3283961231057593	0.5127259659524782	0.5942115951687883	0.3212423120827394	0.06675564782785338	0.6346180760695688	0.2920108998224877	0.06290981349886537	0.43202860865145704	0.35400507911646495	0.04589021559925163	0.45863522303238696	0.30170837879226997	0.0084917185000979	0.6834487049239906	0.12132296930033537	0.9081405892541851	0.6150884189581467	0.12902403294655965	0.499761798566308	0.6186292863743386	0.1323980477213703	0.10666883144636176	0.619395897239619	0.11506916810048032	0.08172651533018371	0.4086718314191708	0.06964732549039208	0.05063556036519191	0.46858777938016355	0.14779728823029115	0.023860963575646484	0.6801485100506127	0.2195888215844528	1.4961424814606796	0.6589745275217743	0.23592521627695057	1.7418400456567569	0.6137585184461574	0.23225036450502407	1.627801779431684	0.563509303032262	0.37800966140851555	1.3967743053674366	0.6494338260133039	0.46241788051134625	1.188143988615963	0.5727104919004854	0.36235570007926166	1.2516897081575202	0.39933877854123934	0.28602178179433785	1.3421307365229194	0.30173309574239315	0.2946890972164654	1.3520663826571782	0.270162962019946	0.3067071316373232	1.301880282876514	0.26931965532027136	0.07427222114483548	1.4144939067667892	0.6535523674403502	0.0284302373266401	1.1652813971998315	0.5677166267766233	0.09878974304728355	1.2534003545275454	0.4178288950358098	0.13400037639119228	1.3493178377068173	0.366138891300055	0.13186259250377796	1.351012324965761	0.35375057678054855	0.13541627515332227	1.2999487526534408	0.33634707081115417	
140	3.414634146341464	0.32755494824466547	0.9143041250372561	0.6022498446806972	0.3282780197872339	0.5125330766397758	0.5940810839107123	0.32118270123885817	0.0669031295493101	0.6346637379016064	0.29324099048811975	0.062264622286408916	0.43332814844018724	0.3539348173601647	0.04662889211463677	0.4576380183202553	0.3013369234849228	0.008421446849966978	0.683597557041592	0.12152902132962307	0.9049054212358866	0.6169678827413985	0.12844315199576353	0.49869718569214194	0.6194838505626806	0.1325046152385585	0.1060743110046256	0.6195021459677719	0.11502525858313808	0.08137172735910297	0.408651889862273	0.06979771474588153	0.05126154043861154	0.46856834527112196	0.14754765360083819	0.024169606226733854	0.6799005293889471	0.22018134594315938	1.494816831349457	0.6563621257165686	0.2353711302536549	1.7418340473707115	0.609856538469237	0.23149463281913368	1.6279744159811087	0.5609450034255283	0.37878216476930016	1.3950324288530187	0.6412983203301957	0.458113303028149	1.1793078009478704	0.6009425649519421	0.39246801641431184	1.1999074816776796	0.41197291769891664	0.3290698798443694	1.2653693930953984	0.28886273601864315	0.336756140251051	1.2689847940970613	0.26496908864410423	0.34934690376239397	1.223503181412994	0.27793061858252266	0.07241308273648416	1.4108913971172654	0.648876707398788	0.027833749751609214	1.1554815423912008	0.6035682601432819	0.09724764114777315	1.207302621670582	0.4236362870197328	0.13942376590242145	1.2850763561041527	0.3477616186757965	0.13718113752506927	1.2793895275730833	0.3427685579033383	0.13008697110028966	1.2255901890768102	0.3542536850045527	
141	3.4390243902439024	0.3273941809370136	0.9116784853900425	0.6023070648508343	0.3282342277354707	0.5123292854287516	0.5940692688862721	0.3211186520767391	0.06730268758450228	0.6347091880146314	0.29462643457526316	0.0614017015422319	0.4353377540333839	0.3546899980889713	0.04636840273496348	0.4575442423094706	0.30103958287058946	0.00856753152461158	0.6832551069500037	0.12162938268818733	0.9023914697200656	0.6191115059462878	0.1277492009625135	0.49755713048590183	0.6204447636932309	0.13262571014132793	0.10567844055310592	0.6195941107308156	0.11506118853966793	0.08097439179977475	0.408615889430054	0.06993193809130879	0.052251605992969866	0.4687283588365178	0.14733260451759278	0.024377051911695844	0.6795879959573671	0.22049121753767725	1.4937652978315064	0.6548163460988934	0.23468837230415748	1.7421274015932013	0.6067656473693608	0.23076276462540996	1.628296417423876	0.5583768238497069	0.37962390698695325	1.3947591602847094	0.6340010383924283	0.4524504153051553	1.1716289405831057	0.6258680469979798	0.4256319355191323	1.146316254354516	0.4259594817115423	0.3817027867962032	1.1823678838152694	0.2865816485449748	0.389650522573849	1.1799977297178492	0.273038959145757	0.40144908980680055	1.138735824105325	0.2932027431384997	0.07071147201114109	1.4077538129855978	0.6450248183887921	0.025390253565774006	1.1480489186896323	0.637789691617964	0.09549647390767735	1.160110806602059	0.4296255706643917	0.14562184384726073	1.2149609225608338	0.3329851240493771	0.14270479952510084	1.2040914096084165	0.330913907419312	0.12224076141445434	1.1488304272121648	0.37275375790482634	
